<?xml version="1.0" standalone="no"?>
<!DOCTYPE svg PUBLIC "-//W3C//DTD SVG 20010904//EN"
 "http://www.w3.org/TR/2001/REC-SVG-20010904/DTD/svg10.dtd">
<svg version="1.0" xmlns="http://www.w3.org/2000/svg"
 width="299.000000pt" height="169.000000pt" viewBox="0 0 299.000000 169.000000"
 preserveAspectRatio="xMidYMid meet">
<metadata>
Created by potrace 1.10, written by Peter Selinger 2001-2011
</metadata>
<g transform="translate(0.000000,169.000000) scale(0.100000,-0.100000)"
fill="#000000" stroke="none">
<path d="M243 1041 c-142 -36 -224 -181 -181 -323 16 -54 88 -132 140 -153 89
-35 200 -16 265 47 l32 31 28 -28 c87 -88 250 -90 339 -4 l32 31 26 -27 c40
-40 110 -67 175 -67 67 0 114 18 163 60 l35 31 22 -23 c36 -38 118 -69 181
-69 62 1 134 29 170 68 l23 24 34 -29 c47 -42 99 -62 163 -62 63 -1 145 30
181 68 l22 23 35 -31 c49 -42 96 -60 162 -61 63 0 135 27 176 68 l26 27 32
-31 c121 -117 334 -68 402 94 37 89 3 221 -74 285 -96 79 -250 73 -331 -14
l-24 -25 -40 35 c-40 33 -117 64 -162 64 -46 0 -128 -33 -164 -65 l-38 -34
-28 29 c-16 17 -31 30 -34 30 -3 0 -5 -48 -3 -107 4 -126 -7 -172 -48 -207
-43 -36 -90 -42 -137 -20 -90 45 -108 143 -39 213 31 31 42 36 84 36 26 0 55
-4 65 -9 15 -7 17 -2 17 57 l0 66 -44 6 c-61 10 -147 -17 -194 -59 l-37 -34
-37 33 c-35 32 -117 65 -163 65 -45 0 -123 -31 -161 -64 l-39 -34 -37 34 c-35
31 -118 64 -163 64 -45 0 -122 -31 -161 -64 l-40 -34 -24 25 c-88 91 -254 90
-346 -2 l-24 -24 -24 24 c-54 54 -160 84 -233 66z m130 -45 c20 -8 52 -25 71
-40 19 -14 42 -26 51 -26 9 0 43 16 75 36 95 59 172 58 259 -1 28 -19 58 -35
67 -35 9 0 43 17 77 38 54 33 68 37 126 37 59 0 72 -5 124 -38 31 -20 65 -37
75 -37 9 0 37 14 61 30 93 63 184 63 275 1 25 -17 52 -31 61 -31 9 0 36 14 60
30 56 38 137 59 160 40 22 -18 1 -40 -40 -40 -68 0 -135 -70 -143 -149 -5 -60
9 -99 49 -135 56 -51 123 -60 189 -26 62 32 84 72 88 160 4 93 10 123 23 114
6 -3 34 9 62 28 62 41 108 58 156 58 39 0 108 -28 148 -60 36 -28 55 -25 118
16 94 62 191 56 270 -17 50 -46 67 -88 67 -159 -2 -168 -203 -267 -337 -166
-67 51 -70 51 -135 8 -98 -66 -174 -65 -279 3 l-55 35 -35 -22 c-141 -86 -199
-85 -336 2 l-31 19 -63 -39 c-105 -64 -176 -62 -278 6 -56 39 -56 39 -130 -12
-85 -57 -169 -53 -268 12 l-55 37 -54 -36 c-107 -71 -190 -71 -293 0 l-53 36
-54 -36 c-73 -49 -131 -63 -194 -47 -98 23 -162 105 -162 205 0 150 142 251
283 201z"/>
<path d="M242 950 c-109 -49 -143 -173 -69 -257 40 -45 77 -63 129 -63 52 0
95 25 134 75 39 52 40 125 2 181 -33 48 -56 62 -113 73 -34 6 -53 4 -83 -9z
m119 -35 c64 -34 89 -128 50 -191 -20 -32 -74 -64 -111 -64 -37 0 -91 32 -111
64 -69 114 55 251 172 191z"/>
<path d="M256 849 c-52 -41 -23 -122 44 -122 67 0 96 81 44 122 -15 12 -34 21
-44 21 -10 0 -29 -9 -44 -21z m64 -34 c17 -20 5 -45 -20 -45 -11 0 -23 7 -26
15 -6 15 11 45 26 45 4 0 13 -7 20 -15z"/>
<path d="M1067 960 c-43 -13 -92 -55 -111 -93 -11 -23 -16 -62 -16 -114 0 -91
13 -113 68 -113 43 0 62 30 62 102 0 38 5 62 16 72 19 19 22 19 54 1 14 -8 34
-14 46 -15 26 0 64 40 64 67 0 28 -60 79 -107 92 -43 12 -38 12 -76 1z m98
-46 c19 -9 41 -26 49 -39 14 -21 13 -23 -10 -34 -21 -9 -30 -8 -51 9 -70 55
-131 -8 -118 -122 l7 -58 -36 0 -36 0 0 73 c0 85 19 131 69 164 40 27 80 29
126 7z"/>
<path d="M640 952 c-61 -28 -110 -97 -110 -157 0 -47 36 -108 82 -138 37 -24
51 -28 96 -24 94 7 152 71 152 168 0 51 -4 63 -31 94 -18 20 -45 43 -60 51
-29 14 -102 18 -129 6z m115 -36 c102 -43 98 -199 -5 -240 -51 -20 -64 -20
-107 1 -47 22 -73 67 -73 123 0 52 18 83 64 111 37 23 74 24 121 5z"/>
<path d="M656 849 c-36 -29 -36 -80 1 -109 47 -37 113 -2 113 60 0 31 -39 70
-70 70 -10 0 -29 -9 -44 -21z m64 -34 c17 -20 5 -45 -20 -45 -11 0 -23 7 -26
15 -6 15 11 45 26 45 4 0 13 -7 20 -15z"/>
<path d="M1409 937 c-52 -35 -79 -82 -79 -139 0 -98 61 -160 165 -166 58 -4
64 -2 98 28 26 22 37 40 37 60 0 15 7 34 16 41 23 19 13 90 -19 133 -51 67
-153 87 -218 43z m148 -27 c40 -24 62 -57 70 -104 l6 -36 -102 0 c-59 0 -101
-4 -101 -10 0 -5 14 -17 32 -26 26 -14 38 -15 64 -5 24 9 38 9 58 0 24 -11 25
-13 10 -30 -40 -44 -127 -48 -178 -8 -56 44 -70 108 -38 168 35 65 118 89 179
51z"/>
<path d="M1452 854 c-12 -8 -22 -19 -22 -23 0 -4 29 -8 65 -9 36 -1 65 2 65 7
0 15 -42 41 -65 41 -11 0 -31 -7 -43 -16z"/>
<path d="M2225 948 c-62 -34 -97 -89 -97 -153 0 -167 222 -226 307 -82 65 111
-12 247 -139 247 -28 0 -60 -6 -71 -12z m136 -41 c71 -47 85 -134 32 -197 -73
-87 -218 -42 -230 72 -11 110 108 186 198 125z"/>
<path d="M2245 845 c-28 -27 -32 -61 -10 -92 45 -64 151 -8 123 66 -20 54 -74
66 -113 26z m75 -51 c0 -19 -5 -24 -24 -24 -30 0 -43 30 -21 47 23 16 45 5 45
-23z"/>
<path d="M2615 941 c-98 -60 -119 -168 -49 -251 55 -65 135 -79 210 -35 145
85 82 305 -88 305 -24 0 -56 -8 -73 -19z m142 -31 c43 -26 64 -61 65 -107 1
-105 -93 -169 -184 -124 -51 24 -78 65 -78 118 0 100 112 165 197 113z"/>
<path d="M2645 845 c-63 -63 18 -160 88 -105 37 29 37 80 1 109 -35 27 -59 26
-89 -4z m65 -30 c17 -20 5 -45 -20 -45 -11 0 -23 7 -26 15 -6 15 11 45 26 45
4 0 13 -7 20 -15z"/>
<path d="M1845 845 c-39 -39 -32 -86 17 -111 59 -30 122 27 99 89 -19 51 -77
62 -116 22z m75 -51 c0 -19 -5 -24 -24 -24 -29 0 -40 24 -20 44 20 20 44 9 44
-20z"/>
</g>
</svg>
