<?xml version="1.0" standalone="no"?>
<!DOCTYPE svg PUBLIC "-//W3C//DTD SVG 20010904//EN"
 "http://www.w3.org/TR/2001/REC-SVG-20010904/DTD/svg10.dtd">
<svg version="1.0" xmlns="http://www.w3.org/2000/svg"
 width="259.000000pt" height="194.000000pt" viewBox="0 0 259.000000 194.000000"
 preserveAspectRatio="xMidYMid meet">
<metadata>
Created by potrace 1.10, written by Peter Selinger 2001-2011
</metadata>
<g transform="translate(0.000000,194.000000) scale(0.100000,-0.100000)"
fill="#000000" stroke="none">
<path d="M900 1719 c-71 -29 -79 -71 -17 -91 55 -19 57 -43 3 -42 -27 1 -45 8
-57 23 -20 25 -35 27 -43 6 -15 -41 21 -65 96 -65 66 0 91 16 86 54 -3 28 -14
38 -52 50 -25 8 -4 34 32 38 35 4 36 32 2 35 -14 1 -36 -2 -50 -8z"/>
<path d="M997 1723 c-11 -11 -8 -151 4 -158 15 -10 16 -7 21 83 3 58 1 82 -7
82 -6 0 -15 -3 -18 -7z"/>
<path d="M1140 1655 c0 -59 -3 -75 -14 -75 -20 0 -31 19 -31 55 0 20 -6 31
-17 33 -15 3 -18 -5 -18 -52 0 -48 -3 -58 -25 -72 -29 -19 -31 -29 -8 -38 10
-4 26 3 43 19 24 23 34 25 109 25 110 0 141 16 141 70 0 29 -5 42 -19 50 -31
16 -45 12 -87 -21 l-39 -31 -3 56 c-2 41 -7 56 -17 56 -12 0 -15 -16 -15 -75z
m141 -31 c11 -14 10 -18 -6 -30 -21 -15 -85 -19 -85 -5 0 9 59 50 71 51 4 0
13 -7 20 -16z"/>
<path d="M1349 1723 c-4 -51 5 -159 14 -165 21 -13 75 -9 91 8 10 10 16 33 16
65 0 43 -3 50 -17 47 -14 -3 -18 -13 -18 -43 0 -35 -3 -40 -24 -43 -33 -5 -42
14 -39 77 2 37 -1 56 -9 58 -7 3 -13 1 -14 -4z"/>
<path d="M1510 1660 c-23 -23 -24 -33 -10 -61 7 -12 21 -19 40 -19 37 0 38
-14 5 -36 -26 -17 -34 -44 -13 -44 6 0 22 10 36 23 26 24 42 27 150 28 83 1
92 9 92 83 0 33 -4 46 -14 46 -11 0 -16 -14 -18 -47 -2 -35 -7 -48 -18 -48
-11 0 -16 13 -18 48 -2 33 -7 47 -18 47 -10 0 -14 -12 -14 -44 0 -42 -13 -66
-28 -51 -4 4 -7 25 -7 48 0 30 -4 42 -14 42 -10 0 -15 -13 -15 -45 -1 -39 -4
-45 -23 -48 -20 -3 -23 1 -23 32 0 25 -6 39 -22 50 -30 21 -44 20 -68 -4z"/>
<path d="M790 1451 c-6 -12 -10 -102 -10 -225 0 -173 2 -207 16 -220 13 -14
65 -16 415 -16 348 0 399 -2 399 -15 0 -13 -53 -15 -415 -15 l-415 0 0 -121 0
-121 208 3 207 3 3 -27 3 -28 -210 3 -211 3 0 -115 0 -115 515 0 515 0 0 115
0 115 -205 -3 -205 -3 0 28 0 28 184 -3 c124 -3 191 0 205 7 20 11 21 18 21
230 0 170 -3 221 -13 230 -10 7 -139 12 -413 13 -347 3 -399 5 -399 18 0 13
54 15 413 18 l412 2 0 115 0 115 -505 0 c-488 0 -505 -1 -515 -19z m975 -96
l0 -70 -380 -3 -380 -2 -30 -24 c-27 -21 -28 -26 -17 -50 6 -15 22 -31 34 -35
13 -5 189 -10 393 -10 203 -1 373 -5 377 -9 5 -5 7 -91 6 -193 l-3 -184 -177
-5 c-170 -5 -177 -6 -202 -29 -31 -29 -33 -51 -7 -82 19 -23 25 -24 203 -29
l183 -5 0 -65 0 -65 -470 0 -470 0 0 65 0 65 180 3 c168 2 181 4 202 24 29 27
30 69 2 94 -19 17 -42 20 -203 24 l-181 5 -3 58 c-2 35 2 64 9 73 9 12 76 14
392 14 340 0 382 2 399 17 24 21 23 48 -2 73 -19 19 -33 20 -404 20 -341 0
-385 2 -390 16 -12 31 -7 359 6 372 9 9 123 12 473 10 l460 -3 0 -70z"/>
<path d="M1710 300 c0 -64 3 -80 15 -80 11 0 15 12 15 45 0 38 3 45 20 45 17
0 20 -7 20 -45 0 -34 4 -45 15 -45 13 0 15 11 13 58 l-3 57 -32 -1 c-29 -2
-33 1 -33 22 0 15 -6 24 -15 24 -12 0 -15 -16 -15 -80z"/>
<path d="M1296 355 c4 -8 1 -15 -5 -15 -6 0 -11 -7 -11 -15 0 -8 4 -15 9 -15
6 0 11 -19 13 -42 3 -40 5 -43 32 -43 16 0 31 6 34 13 2 7 -5 12 -17 12 -17 0
-21 6 -21 35 0 25 4 33 14 29 8 -3 17 0 21 6 4 7 -2 14 -14 17 -12 3 -21 12
-21 19 0 8 -9 14 -20 14 -13 0 -18 -5 -14 -15z"/>
<path d="M802 328 c-22 -22 -13 -46 20 -57 23 -8 29 -14 21 -22 -8 -8 -17 -8
-33 1 -19 10 -21 9 -18 -7 4 -24 60 -30 82 -8 21 21 6 50 -29 59 -15 4 -23 11
-19 17 3 6 17 8 30 5 17 -5 24 -2 24 9 0 19 -60 21 -78 3z"/>
<path d="M912 328 c-17 -17 -15 -74 4 -92 37 -37 94 -8 94 48 0 40 -15 56 -55
56 -17 0 -36 -5 -43 -12z m66 -39 c2 -14 -3 -31 -11 -37 -21 -18 -41 10 -33
44 9 33 40 29 44 -7z"/>
<path d="M1033 279 c0 -51 3 -59 19 -59 15 0 18 8 18 46 0 38 3 45 18 42 13
-2 17 -14 18 -43 0 -29 5 -41 17 -43 14 -3 17 5 17 45 0 26 -4 53 -8 60 -4 6
-28 11 -53 11 l-46 0 0 -59z"/>
<path d="M1170 325 c0 -11 7 -14 24 -9 13 3 27 1 31 -5 4 -7 -6 -14 -25 -18
-67 -13 -49 -67 23 -70 l46 -2 -5 47 c-8 70 -10 72 -54 72 -29 0 -40 -4 -40
-15z m60 -59 c0 -8 -5 -18 -11 -22 -14 -8 -33 11 -25 25 10 16 36 13 36 -3z"/>
<path d="M1380 280 c0 -53 2 -60 19 -60 17 0 19 6 18 43 -2 37 1 42 21 45 12
2 22 10 22 18 0 17 -22 18 -38 2 -9 -9 -12 -9 -12 0 0 7 -7 12 -15 12 -12 0
-15 -13 -15 -60z"/>
<path d="M1470 325 c0 -11 7 -13 29 -9 38 8 50 -13 12 -21 -73 -16 -64 -69 13
-71 l46 -2 0 47 c0 26 -5 52 -12 59 -18 18 -88 16 -88 -3z m70 -59 c0 -17 -27
-29 -35 -16 -4 6 -3 15 0 20 9 15 35 12 35 -4z"/>
<path d="M1607 322 c-25 -28 -22 -69 7 -88 29 -18 70 -15 74 6 2 11 -6 15 -30
15 -26 0 -34 5 -36 21 -4 30 21 48 48 34 19 -10 21 -9 18 7 -5 26 -59 30 -81
5z"/>
</g>
</svg>
