<?xml version="1.0" standalone="no"?>
<!DOCTYPE svg PUBLIC "-//W3C//DTD SVG 20010904//EN"
 "http://www.w3.org/TR/2001/REC-SVG-20010904/DTD/svg10.dtd">
<svg version="1.0" xmlns="http://www.w3.org/2000/svg"
 width="225.000000pt" height="225.000000pt" viewBox="0 0 225.000000 225.000000"
 preserveAspectRatio="xMidYMid meet">
<metadata>
Created by potrace 1.10, written by Peter Selinger 2001-2011
</metadata>
<g transform="translate(0.000000,225.000000) scale(0.100000,-0.100000)"
fill="#000000" stroke="none">
<path d="M135 1286 c-40 -17 -82 -67 -95 -114 -13 -50 -13 -66 5 -110 32 -74
87 -113 166 -114 179 -1 247 238 93 328 -47 27 -120 32 -169 10z m152 -11 c20
-8 33 -18 30 -22 -4 -3 1 -12 11 -19 14 -10 10 -11 -23 -2 -32 9 -47 8 -70 -3
-31 -15 -60 -51 -70 -86 -5 -19 -2 -23 14 -23 16 0 21 6 21 24 0 30 52 76 86
76 39 0 83 -28 90 -56 4 -14 2 -29 -3 -33 -5 -3 -13 -21 -16 -39 -16 -81 -100
-140 -183 -127 -57 8 -66 24 -10 18 77 -9 141 39 161 120 6 23 4 27 -14 27
-15 0 -21 -6 -21 -22 0 -30 -33 -84 -60 -98 -27 -14 -77 -17 -109 -6 -18 6
-22 5 -16 -4 5 -9 4 -11 -4 -6 -21 13 -1 25 33 19 58 -9 126 45 126 102 0 25
-27 17 -34 -11 -19 -74 -103 -98 -157 -45 -31 32 -37 56 -15 64 7 3 16 23 19
44 4 25 18 50 39 70 56 54 109 65 175 38z"/>
<path d="M172 1250 c-55 -34 -98 -130 -57 -130 8 0 15 7 15 16 0 9 8 32 17 51
21 44 84 76 134 67 26 -4 30 -3 19 5 -24 17 -92 13 -128 -9z"/>
<path d="M670 1272 l-45 -3 -54 -102 c-30 -56 -65 -119 -78 -139 -13 -21 -23
-39 -23 -40 0 -2 22 -1 50 0 38 3 51 8 55 23 5 15 16 19 56 19 42 0 49 -3 49
-20 0 -17 7 -20 45 -20 25 0 45 3 45 8 0 13 -50 275 -53 276 -1 1 -22 0 -47
-2z m-1 -159 c1 -30 -2 -33 -30 -33 -17 0 -29 3 -27 8 2 4 12 29 23 57 18 45
20 47 26 25 4 -14 7 -40 8 -57z"/>
<path d="M910 1272 l-45 -3 -18 -112 c-10 -62 -21 -124 -24 -139 -5 -27 -4
-28 41 -28 25 0 46 1 46 3 0 1 11 65 25 141 14 77 24 140 22 140 -1 1 -22 0
-47 -2z"/>
<path d="M1015 1250 c-2 -14 -12 -68 -20 -120 -9 -52 -19 -105 -22 -117 -5
-21 -2 -23 41 -23 l45 0 7 51 7 50 36 -3 c36 -3 36 -3 36 -51 l0 -47 46 0 46
0 2 54 c1 43 -2 57 -15 64 -16 9 -15 12 9 33 33 29 44 76 23 104 -12 17 -29
21 -125 25 l-111 5 -5 -25z m155 -50 c25 -16 -1 -45 -44 -48 -32 -3 -36 -1
-36 21 0 13 3 27 7 30 10 10 56 8 73 -3z m-103 -67 c4 -12 -27 -47 -34 -39 -3
3 -2 17 1 31 7 26 26 30 33 8z"/>
<path d="M1335 1255 c-7 -30 -45 -253 -45 -260 0 -4 49 -5 110 -3 101 3 111 5
134 28 36 37 42 74 17 99 l-21 21 25 24 c28 28 32 53 11 82 -12 16 -30 20
-121 24 -100 5 -106 4 -110 -15z m150 -70 c0 -15 -9 -21 -37 -26 -37 -6 -38
-5 -38 23 0 28 2 29 38 26 29 -2 37 -7 37 -23z m-9 -90 c10 -24 -15 -45 -52
-45 -29 0 -34 3 -34 23 0 31 7 37 47 37 21 0 36 -6 39 -15z"/>
<path d="M1700 1272 l-46 -3 -18 -109 c-17 -103 -17 -111 -2 -135 32 -49 130
-61 195 -24 50 28 60 46 76 142 8 45 17 93 20 107 5 24 3 25 -40 25 -51 0 -48
5 -65 -105 -14 -88 -31 -120 -64 -120 -43 0 -47 18 -27 126 11 54 18 99 18 99
-1 0 -22 -1 -47 -3z"/>
<path d="M2034 1266 c-41 -18 -64 -52 -64 -93 0 -39 36 -67 101 -77 30 -5 39
-11 39 -26 0 -16 -7 -20 -35 -20 -18 0 -38 6 -42 13 -4 6 -27 12 -50 13 -35 1
-43 -3 -43 -17 0 -33 42 -70 87 -76 98 -13 173 34 173 108 0 43 -17 57 -98 79
-32 8 -42 16 -40 28 4 22 41 27 58 7 8 -9 29 -15 57 -15 41 0 44 2 38 23 -4
12 -18 32 -31 45 -29 26 -100 30 -150 8z"/>
</g>
</svg>
